<?xml version="1.0" encoding="UTF-8"?>
<svg id="Logotipo_Negro" data-name="Logotipo Negro" xmlns="http://www.w3.org/2000/svg" viewBox="0 0 1080 1080">
  <defs>
    <style>
      .cls-1 {
        fill: #161616;
        stroke-width: 0px;
      }
    </style>
  </defs>
  <polygon class="cls-1" points="620.6 245 425.93 349.38 382.37 372.72 382.37 509.8 432.21 483.07 432.21 399.8 513.55 356.22 618.35 300.04 618.35 401.98 382.37 528.49 382.37 782.64 432.21 755.91 432.21 555.57 668.16 429.08 668.16 219.51 620.6 245"/>
  <polygon class="cls-1" points="605.39 587.81 605.39 641.62 647.39 619.11 647.39 709.21 620.6 723.59 538.15 767.76 515.8 779.76 515.8 537.87 465.56 564.78 465.56 860.49 697.63 736.07 697.63 538.36 605.39 587.81"/>
  <polygon class="cls-1" points="668.16 510.01 668.16 456.17 535.91 527.06 535.91 747.75 613.92 705.93 613.92 652.12 586.15 667 586.15 553.96 668.16 510.01"/>
</svg>