<?xml version="1.0" encoding="UTF-8"?>
<svg id="Logotipo_Negro" data-name="Logotipo Negro" xmlns="http://www.w3.org/2000/svg" viewBox="0 0 2214.37 813.52">
  <defs>
    <style>
      .cls-1 {
        fill: #161616;
        stroke-width: 0px;
      }
    </style>
  </defs>
  <g>
    <g>
      <path class="cls-1" d="M824.22,242.21v-120.1h58.82c8.17,0,14.91,1.55,20.22,4.64,5.31,3.1,9.28,7.33,11.91,12.69,2.62,5.37,3.94,11.5,3.94,18.38s-1.52,13.48-4.55,19.08c-3.04,5.6-7.24,9.95-12.61,13.04-5.37,3.09-11.55,4.64-18.56,4.64h-45.35v47.62h-13.83ZM838.05,182.68h44.29c6.77,0,12.25-2.19,16.46-6.57,4.2-4.37,6.3-10.42,6.3-18.12,0-5.02-.85-9.31-2.54-12.87-1.69-3.56-4.23-6.3-7.62-8.23-3.39-1.93-7.59-2.89-12.6-2.89h-44.29v48.67Z"/>
      <path class="cls-1" d="M942.04,242.21v-120.1h91.91v11.91h-78.08v40.62h70.38v12.08h-70.38v43.59h79.13v11.91h-92.96Z"/>
      <path class="cls-1" d="M1062.66,242.21v-120.1h63.03c7.94,0,14.5,1.49,19.7,4.47,5.19,2.98,9.1,7.03,11.73,12.17,2.63,5.14,3.94,10.97,3.94,17.51,0,8.52-1.96,15.73-5.87,21.62-3.91,5.89-9.08,10.06-15.49,12.52l25.56,51.82h-15.23l-23.98-49.37h-49.55v49.37h-13.83ZM1076.5,180.93h47.79c7.12,0,12.72-2.19,16.81-6.56,4.08-4.38,6.13-10.42,6.13-18.12,0-4.67-.87-8.64-2.62-11.91-1.75-3.26-4.32-5.8-7.7-7.62-3.39-1.81-7.59-2.71-12.61-2.71h-47.79v46.92Z"/>
      <path class="cls-1" d="M1192.57,242.21v-120.1h91.91v11.91h-78.08v40.62h70.38v12.08h-70.38v43.59h79.13v11.91h-92.96Z"/>
      <path class="cls-1" d="M1366.94,244.31c-19.73,0-34.61-5.1-44.64-15.32-10.04-10.21-15.06-25.82-15.06-46.83,0-13.66,2.3-25.09,6.91-34.32,4.61-9.22,11.44-16.16,20.48-20.83,9.04-4.67,20.22-7,33.53-7,8.29,0,15.73.9,22.32,2.71,6.59,1.81,12.26,4.49,16.98,8.05,4.73,3.56,8.34,8.02,10.85,13.39,2.51,5.37,3.76,11.67,3.76,18.91h-14.01c0-5.72-.99-10.56-2.97-14.53-1.99-3.97-4.79-7.21-8.41-9.72-3.62-2.51-7.88-4.29-12.78-5.34-4.9-1.05-10.15-1.57-15.76-1.57-7.24,0-13.71.9-19.43,2.71-5.72,1.81-10.62,4.67-14.71,8.58-4.08,3.91-7.18,8.93-9.28,15.06-2.1,6.13-3.15,13.51-3.15,22.15v3.68c0,11.55,1.81,20.89,5.43,28.01,3.62,7.12,8.78,12.28,15.5,15.49,6.71,3.21,14.73,4.81,24.07,4.81,9.92,0,17.94-1.37,24.07-4.12,6.13-2.74,10.59-6.94,13.39-12.6,2.8-5.66,4.2-12.87,4.2-21.62v-2.63h-44.29v-11.73h58.13v62.5h-10.68l-1.75-16.11c-2.92,4.32-6.62,7.82-11.12,10.5s-9.45,4.64-14.88,5.86c-5.43,1.23-11,1.84-16.72,1.84Z"/>
      <path class="cls-1" d="M1454.47,242.21v-120.1h63.03c7.94,0,14.5,1.49,19.7,4.47,5.19,2.98,9.1,7.03,11.73,12.17,2.63,5.14,3.94,10.97,3.94,17.51,0,8.52-1.96,15.73-5.87,21.62-3.91,5.89-9.08,10.06-15.49,12.52l25.56,51.82h-15.23l-23.98-49.37h-49.55v49.37h-13.83ZM1468.3,180.93h47.79c7.12,0,12.72-2.19,16.81-6.56,4.08-4.38,6.13-10.42,6.13-18.12,0-4.67-.87-8.64-2.62-11.91-1.75-3.26-4.32-5.8-7.7-7.62-3.39-1.81-7.59-2.71-12.61-2.71h-47.79v46.92Z"/>
      <path class="cls-1" d="M1584.37,242.21v-120.1h13.83v120.1h-13.83Z"/>
      <path class="cls-1" d="M1631.64,242.21v-120.1h13.48l61.45,82.98c.7.82,1.55,1.93,2.54,3.33.99,1.4,1.98,2.83,2.98,4.29.99,1.46,1.84,2.78,2.54,3.94h.88v-94.54h13.48v120.1h-12.08l-62.68-84.73c-.82-1.17-2.1-3.01-3.85-5.52-1.75-2.51-3.27-4.64-4.55-6.39h-.7v96.64h-13.48Z"/>
      <path class="cls-1" d="M1747.89,242.21l47.79-120.1h18.56l47.97,120.1h-14.88l-12.6-31.69h-60.22l-12.43,31.69h-14.18ZM1779.23,198.61h50.77l-15.76-40.09c-.35-.93-.87-2.33-1.58-4.2-.7-1.86-1.49-4-2.36-6.39-.87-2.39-1.75-4.81-2.62-7.27-.87-2.45-1.72-4.67-2.54-6.65h-1.22c-.7,2.22-1.6,4.85-2.71,7.88-1.11,3.03-2.22,6.04-3.33,9.02-1.11,2.97-2.07,5.51-2.89,7.61l-15.76,40.09Z"/>
      <path class="cls-1" d="M1879.02,266.54v-6.3c2.1-.47,3.79-1.55,5.08-3.24,1.28-1.69,2.22-3.8,2.8-6.3.58-2.51.87-5.34.87-8.49h-6.65v-16.46h14.71v14.53c0,6.65-.91,11.79-2.72,15.41-1.81,3.62-4.03,6.21-6.65,7.79-2.63,1.58-5.11,2.6-7.44,3.07Z"/>
    </g>
    <g>
      <path class="cls-1" d="M885,393.16c-19.73,0-34.61-5.1-44.64-15.32-10.04-10.21-15.06-25.82-15.06-46.83,0-13.66,2.3-25.09,6.91-34.32,4.61-9.22,11.44-16.16,20.48-20.83,9.04-4.67,20.22-7,33.53-7,8.29,0,15.73.9,22.32,2.71,6.59,1.81,12.26,4.49,16.98,8.05,4.73,3.56,8.34,8.02,10.85,13.39,2.51,5.37,3.76,11.67,3.76,18.91h-14.01c0-5.72-.99-10.56-2.97-14.53-1.99-3.97-4.79-7.21-8.41-9.72-3.62-2.51-7.88-4.29-12.78-5.34-4.9-1.05-10.15-1.57-15.76-1.57-7.24,0-13.71.9-19.43,2.71-5.72,1.81-10.62,4.67-14.71,8.58-4.08,3.91-7.18,8.93-9.28,15.06-2.1,6.13-3.15,13.51-3.15,22.15v3.68c0,11.55,1.81,20.89,5.43,28.01,3.62,7.12,8.78,12.28,15.5,15.49,6.71,3.21,14.73,4.81,24.07,4.81,9.92,0,17.94-1.37,24.07-4.12,6.13-2.74,10.59-6.94,13.39-12.6,2.8-5.66,4.2-12.87,4.2-21.62v-2.63h-44.29v-11.73h58.13v62.5h-10.68l-1.75-16.11c-2.92,4.32-6.62,7.82-11.12,10.5s-9.45,4.64-14.88,5.86c-5.43,1.23-11,1.84-16.72,1.84Z"/>
      <path class="cls-1" d="M1020.51,393.16c-10.04,0-18.64-1.61-25.82-4.81-7.18-3.21-12.69-8.37-16.54-15.5-3.85-7.12-5.78-16.34-5.78-27.66v-74.23h13.83v77.03c0,11.09,3,19.38,9.02,24.86,6.01,5.49,14.44,8.23,25.3,8.23s19.75-2.74,26-8.23c6.24-5.48,9.37-13.77,9.37-24.86v-77.03h13.66v74.23c0,11.32-1.96,20.54-5.87,27.66-3.91,7.12-9.51,12.29-16.81,15.5-7.3,3.21-16.08,4.81-26.35,4.81Z"/>
      <path class="cls-1" d="M1102.96,391.05v-120.1h91.91v11.91h-78.08v40.62h70.38v12.08h-70.38v43.59h79.13v11.91h-92.96Z"/>
      <path class="cls-1" d="M1223.58,391.05v-120.1h63.03c7.94,0,14.5,1.49,19.7,4.47,5.19,2.98,9.1,7.03,11.73,12.17,2.63,5.14,3.94,10.97,3.94,17.51,0,8.52-1.96,15.73-5.87,21.62-3.91,5.89-9.08,10.06-15.49,12.52l25.56,51.82h-15.23l-23.98-49.37h-49.55v49.37h-13.83ZM1237.41,329.78h47.79c7.12,0,12.72-2.19,16.81-6.56,4.08-4.38,6.13-10.42,6.13-18.12,0-4.67-.87-8.64-2.62-11.91-1.75-3.26-4.32-5.8-7.7-7.62-3.39-1.81-7.59-2.71-12.61-2.71h-47.79v46.92Z"/>
      <path class="cls-1" d="M1353.48,391.05v-120.1h63.03c7.94,0,14.5,1.49,19.7,4.47,5.19,2.98,9.1,7.03,11.73,12.17,2.63,5.14,3.94,10.97,3.94,17.51,0,8.52-1.96,15.73-5.87,21.62-3.91,5.89-9.08,10.06-15.49,12.52l25.56,51.82h-15.23l-23.98-49.37h-49.55v49.37h-13.83ZM1367.31,329.78h47.79c7.12,0,12.72-2.19,16.81-6.56,4.08-4.38,6.13-10.42,6.13-18.12,0-4.67-.87-8.64-2.62-11.91-1.75-3.26-4.32-5.8-7.7-7.62-3.39-1.81-7.59-2.71-12.61-2.71h-47.79v46.92Z"/>
      <path class="cls-1" d="M1483.39,391.05v-120.1h91.91v11.91h-78.08v40.62h70.38v12.08h-70.38v43.59h79.13v11.91h-92.96Z"/>
      <path class="cls-1" d="M1604.01,391.05v-120.1h63.03c7.94,0,14.5,1.49,19.7,4.47,5.19,2.98,9.1,7.03,11.73,12.17,2.63,5.14,3.94,10.97,3.94,17.51,0,8.52-1.96,15.73-5.87,21.62-3.91,5.89-9.08,10.06-15.49,12.52l25.56,51.82h-15.23l-23.98-49.37h-49.55v49.37h-13.83ZM1617.84,329.78h47.79c7.12,0,12.72-2.19,16.81-6.56,4.08-4.38,6.13-10.42,6.13-18.12,0-4.67-.87-8.64-2.62-11.91-1.75-3.26-4.32-5.8-7.7-7.62-3.39-1.81-7.59-2.71-12.61-2.71h-47.79v46.92Z"/>
      <path class="cls-1" d="M1783.81,393.16c-12.37,0-23.02-2.3-31.95-6.92-8.93-4.61-15.79-11.52-20.57-20.75-4.79-9.22-7.18-20.72-7.18-34.49s2.39-25.41,7.18-34.58c4.78-9.16,11.64-16.05,20.57-20.66,8.93-4.61,19.58-6.91,31.95-6.91s23.2,2.31,32.12,6.91c8.93,4.61,15.76,11.5,20.48,20.66,4.73,9.16,7.09,20.69,7.09,34.58s-2.36,25.27-7.09,34.49c-4.73,9.22-11.55,16.14-20.48,20.75-8.93,4.61-19.64,6.92-32.12,6.92ZM1783.81,381.25c6.89,0,13.13-.9,18.73-2.72,5.6-1.81,10.39-4.7,14.35-8.66,3.97-3.97,7.03-8.99,9.19-15.06,2.16-6.06,3.24-13.36,3.24-21.88v-3.68c0-8.64-1.08-15.99-3.24-22.06-2.16-6.07-5.22-11.09-9.19-15.06-3.97-3.97-8.75-6.86-14.35-8.67-5.6-1.81-11.85-2.71-18.73-2.71s-13.1.9-18.65,2.71-10.3,4.7-14.27,8.67c-3.97,3.97-7.03,8.99-9.19,15.06-2.16,6.07-3.24,13.42-3.24,22.06v3.68c0,8.52,1.08,15.82,3.24,21.88,2.16,6.07,5.22,11.09,9.19,15.06,3.97,3.97,8.72,6.86,14.27,8.66,5.54,1.81,11.76,2.72,18.65,2.72Z"/>
      <path class="cls-1" d="M1862.06,415.39v-6.3c2.1-.47,3.79-1.55,5.08-3.24,1.28-1.69,2.22-3.8,2.8-6.3.58-2.51.87-5.34.87-8.49h-6.65v-16.46h14.71v14.53c0,6.65-.91,11.79-2.72,15.41-1.81,3.62-4.03,6.21-6.65,7.79-2.63,1.58-5.11,2.6-7.44,3.07Z"/>
    </g>
    <g>
      <path class="cls-1" d="M881.59,544.66c-12.25,0-22.61-2.28-31.07-6.83-8.47-4.55-14.88-11.44-19.26-20.66-4.38-9.22-6.56-20.77-6.56-34.66,0-20.77,5.02-36.33,15.06-46.66,10.04-10.33,24.1-15.49,42.19-15.49,10.39,0,19.52,1.66,27.4,4.99,7.88,3.33,14.06,8.29,18.56,14.88,4.49,6.6,6.74,14.97,6.74,25.12h-14c0-7.59-1.58-13.8-4.73-18.65-3.15-4.84-7.62-8.46-13.39-10.85-5.78-2.39-12.69-3.59-20.75-3.59-8.64,0-16.17,1.69-22.59,5.08-6.42,3.39-11.38,8.67-14.88,15.84-3.5,7.18-5.25,16.55-5.25,28.1v3.68c0,11.32,1.75,20.48,5.25,27.49,3.5,7,8.46,12.14,14.88,15.4,6.42,3.27,14.01,4.9,22.76,4.9,8.05,0,15-1.2,20.83-3.59,5.83-2.39,10.33-6.01,13.48-10.85,3.15-4.84,4.73-11.06,4.73-18.65h13.66c0,10.27-2.31,18.73-6.91,25.39-4.61,6.65-10.89,11.58-18.82,14.79-7.94,3.21-17.04,4.81-27.31,4.81Z"/>
      <path class="cls-1" d="M946.54,542.56l47.79-120.1h18.56l47.97,120.1h-14.88l-12.6-31.69h-60.22l-12.43,31.69h-14.18ZM977.88,498.97h50.77l-15.76-40.09c-.35-.93-.87-2.33-1.58-4.2-.7-1.86-1.49-4-2.36-6.39-.87-2.39-1.75-4.81-2.62-7.27-.87-2.45-1.72-4.67-2.54-6.65h-1.22c-.7,2.22-1.6,4.85-2.71,7.88-1.11,3.03-2.22,6.04-3.33,9.02-1.11,2.97-2.07,5.51-2.89,7.61l-15.76,40.09Z"/>
      <path class="cls-1" d="M1079.94,542.56v-120.1h63.03c7.94,0,14.5,1.49,19.7,4.47,5.19,2.98,9.1,7.03,11.73,12.17,2.63,5.14,3.94,10.97,3.94,17.51,0,8.52-1.96,15.73-5.87,21.62-3.91,5.89-9.08,10.06-15.49,12.52l25.56,51.82h-15.23l-23.98-49.37h-49.55v49.37h-13.83ZM1093.77,481.28h47.79c7.12,0,12.72-2.19,16.81-6.56,4.08-4.38,6.13-10.42,6.13-18.12,0-4.67-.87-8.64-2.62-11.91-1.75-3.26-4.32-5.8-7.7-7.62-3.39-1.81-7.59-2.71-12.61-2.71h-47.79v46.92Z"/>
      <path class="cls-1" d="M1209.84,542.56v-120.1h43.24c12.84,0,23.72,2.07,32.65,6.22,8.93,4.14,15.76,10.62,20.48,19.43,4.73,8.81,7.09,20.28,7.09,34.4s-2.36,25.27-7.09,34.14c-4.73,8.87-11.55,15.4-20.48,19.61-8.93,4.2-19.81,6.3-32.65,6.3h-43.24ZM1223.67,530.65h28.89c7.12,0,13.54-.84,19.26-2.54,5.72-1.69,10.62-4.37,14.71-8.05,4.08-3.68,7.18-8.43,9.28-14.27,2.1-5.84,3.15-12.9,3.15-21.19v-3.68c0-8.52-1.05-15.73-3.15-21.62-2.1-5.89-5.16-10.68-9.19-14.36-4.03-3.68-8.9-6.36-14.62-8.05-5.72-1.69-12.2-2.54-19.43-2.54h-28.89v96.29Z"/>
      <path class="cls-1" d="M1393.84,544.66c-12.37,0-23.02-2.3-31.95-6.92-8.93-4.61-15.79-11.52-20.57-20.75-4.79-9.22-7.18-20.72-7.18-34.49s2.39-25.41,7.18-34.58c4.78-9.16,11.64-16.05,20.57-20.66,8.93-4.61,19.58-6.91,31.95-6.91s23.2,2.31,32.12,6.91c8.93,4.61,15.76,11.5,20.48,20.66,4.73,9.16,7.09,20.69,7.09,34.58s-2.36,25.27-7.09,34.49c-4.73,9.22-11.55,16.14-20.48,20.75-8.93,4.61-19.64,6.92-32.12,6.92ZM1393.84,532.76c6.89,0,13.13-.9,18.73-2.72,5.6-1.81,10.39-4.7,14.35-8.66,3.97-3.97,7.03-8.99,9.19-15.06,2.16-6.06,3.24-13.36,3.24-21.88v-3.68c0-8.64-1.08-15.99-3.24-22.06-2.16-6.07-5.22-11.09-9.19-15.06-3.97-3.97-8.75-6.86-14.35-8.67-5.6-1.81-11.85-2.71-18.73-2.71s-13.1.9-18.65,2.71c-5.54,1.81-10.3,4.7-14.27,8.67-3.97,3.97-7.03,8.99-9.19,15.06-2.16,6.07-3.24,13.42-3.24,22.06v3.68c0,8.52,1.08,15.82,3.24,21.88,2.16,6.07,5.22,11.09,9.19,15.06,3.97,3.97,8.72,6.86,14.27,8.66,5.54,1.81,11.76,2.72,18.65,2.72Z"/>
      <path class="cls-1" d="M1524.62,544.66c-6.42,0-12.67-.59-18.73-1.75-6.07-1.16-11.44-3.15-16.11-5.95-4.67-2.8-8.35-6.48-11.03-11.03-2.69-4.55-4.03-10.21-4.03-16.98v-1.66c0-.52.06-1.08.18-1.66h13.83c0,.47-.03,1.11-.09,1.93-.06.82-.09,1.52-.09,2.1,0,5.14,1.55,9.43,4.64,12.87,3.09,3.45,7.29,6.01,12.61,7.7,5.31,1.69,11.29,2.54,17.94,2.54,2.22,0,4.87-.14,7.97-.44,3.09-.29,6.24-.88,9.45-1.75,3.21-.87,6.16-2.1,8.84-3.68,2.68-1.58,4.87-3.62,6.56-6.13,1.69-2.51,2.54-5.63,2.54-9.37,0-4.32-1.17-7.88-3.5-10.68-2.34-2.8-5.4-5.1-9.19-6.91-3.8-1.81-8.14-3.41-13.04-4.81-4.9-1.4-9.92-2.74-15.06-4.03-5.14-1.28-10.13-2.74-14.97-4.37-4.84-1.63-9.19-3.68-13.04-6.13-3.85-2.45-6.91-5.52-9.19-9.19-2.28-3.68-3.41-8.2-3.41-13.57,0-4.67.93-8.93,2.8-12.78,1.87-3.85,4.73-7.15,8.58-9.89,3.85-2.74,8.75-4.87,14.71-6.39,5.95-1.52,13.01-2.28,21.18-2.28,6.19,0,11.96.64,17.33,1.93,5.37,1.28,10.09,3.3,14.18,6.04,4.08,2.74,7.27,6.19,9.54,10.33,2.28,4.14,3.41,9.14,3.41,14.97v2.1h-13.66v-2.98c0-4.31-1.34-7.97-4.03-10.94-2.69-2.97-6.27-5.31-10.77-7-4.5-1.69-9.6-2.54-15.32-2.54-7.82,0-14.24.79-19.26,2.36-5.02,1.57-8.75,3.74-11.2,6.48-2.45,2.74-3.68,5.81-3.68,9.19,0,3.97,1.16,7.26,3.5,9.89,2.34,2.62,5.43,4.79,9.28,6.48,3.85,1.69,8.2,3.21,13.04,4.55,4.84,1.34,9.83,2.66,14.97,3.94,5.13,1.29,10.12,2.78,14.97,4.47,4.84,1.69,9.22,3.79,13.13,6.3,3.91,2.51,7,5.63,9.28,9.37,2.28,3.74,3.41,8.35,3.41,13.83,0,8.29-2.07,15.06-6.22,20.31-4.14,5.25-9.83,9.1-17.07,11.55-7.24,2.45-15.64,3.68-25.21,3.68Z"/>
      <path class="cls-1" d="M1653.99,544.66c-12.37,0-23.02-2.3-31.95-6.92-8.93-4.61-15.79-11.52-20.57-20.75-4.79-9.22-7.18-20.72-7.18-34.49s2.39-25.41,7.18-34.58c4.78-9.16,11.64-16.05,20.57-20.66,8.93-4.61,19.58-6.91,31.95-6.91s23.2,2.31,32.12,6.91c8.93,4.61,15.76,11.5,20.48,20.66,4.73,9.16,7.09,20.69,7.09,34.58s-2.36,25.27-7.09,34.49c-4.73,9.22-11.55,16.14-20.48,20.75-8.93,4.61-19.64,6.92-32.12,6.92ZM1653.99,532.76c6.89,0,13.13-.9,18.73-2.72,5.6-1.81,10.39-4.7,14.35-8.66,3.97-3.97,7.03-8.99,9.19-15.06,2.16-6.06,3.24-13.36,3.24-21.88v-3.68c0-8.64-1.08-15.99-3.24-22.06-2.16-6.07-5.22-11.09-9.19-15.06-3.97-3.97-8.75-6.86-14.35-8.67-5.6-1.81-11.85-2.71-18.73-2.71s-13.1.9-18.65,2.71c-5.54,1.81-10.3,4.7-14.27,8.67-3.97,3.97-7.03,8.99-9.19,15.06-2.16,6.07-3.24,13.42-3.24,22.06v3.68c0,8.52,1.08,15.82,3.24,21.88,2.16,6.07,5.22,11.09,9.19,15.06,3.97,3.97,8.72,6.86,14.27,8.66,5.54,1.81,11.76,2.72,18.65,2.72Z"/>
      <path class="cls-1" d="M1803.97,519.68c-7.19,0-13.21-.89-18.06-2.67-4.85-1.78-8.53-4.24-11.05-7.38-2.51-3.14-3.77-6.77-3.77-10.89,0-4.61,1.22-8.38,3.66-11.31,2.44-2.93,5.66-4.99,9.64-6.18v-.42c-3.21-1.26-5.92-3.16-8.12-5.71-2.2-2.55-3.3-5.78-3.3-9.69s1.22-7.49,3.66-10.52c2.44-3.04,5.99-5.41,10.63-7.12,4.64-1.71,10.24-2.57,16.81-2.57s12.08.86,16.76,2.57c4.68,1.71,8.27,4.05,10.79,7.02,2.51,2.97,3.77,6.33,3.77,10.1v2.62h-15.92v-1.57c-.07-1.68-.66-3.1-1.78-4.29-1.12-1.19-2.74-2.1-4.87-2.72-2.13-.63-4.76-.94-7.91-.94-2.37,0-4.47.25-6.28.74-1.82.49-3.32,1.17-4.5,2.04-1.19.87-2.08,1.89-2.67,3.04-.59,1.15-.89,2.43-.89,3.82,0,1.89.45,3.44,1.36,4.66.91,1.22,2.11,2.13,3.61,2.72,1.5.59,3.09.89,4.76.89h9.11v11.83h-10.26c-1.82,0-3.55.28-5.18.84-1.64.56-2.93,1.48-3.87,2.78-.94,1.29-1.41,3.09-1.41,5.39,0,2.16.54,4,1.62,5.5,1.08,1.5,2.78,2.65,5.08,3.45,2.3.8,5.2,1.2,8.69,1.2,3.77,0,6.79-.43,9.06-1.31,2.27-.87,3.89-2.09,4.87-3.66.98-1.57,1.47-3.37,1.47-5.39v-20.63h28.28v11.83h-12.25v8.48c0,4.68-1.1,8.79-3.3,12.36-2.2,3.56-5.64,6.3-10.31,8.22-4.68,1.92-10.65,2.88-17.91,2.88Z"/>
    </g>
    <g>
      <path class="cls-1" d="M824.63,691.41l47.79-120.1h18.56l47.97,120.1h-14.88l-12.6-31.69h-60.22l-12.43,31.69h-14.18ZM855.97,647.81h50.77l-15.76-40.09c-.35-.93-.87-2.33-1.58-4.2-.7-1.86-1.49-4-2.36-6.39-.87-2.39-1.75-4.81-2.62-7.27s-1.72-4.67-2.54-6.65h-1.22c-.7,2.22-1.6,4.85-2.71,7.88-1.11,3.03-2.22,6.04-3.33,9.02-1.11,2.97-2.07,5.51-2.89,7.61l-15.76,40.09Z"/>
      <path class="cls-1" d="M1001.8,693.51c-6.42,0-12.67-.59-18.73-1.75-6.07-1.16-11.44-3.15-16.11-5.95-4.67-2.8-8.35-6.48-11.03-11.03-2.69-4.55-4.03-10.21-4.03-16.98v-1.66c0-.52.06-1.08.18-1.66h13.83c0,.47-.03,1.11-.09,1.93-.06.82-.09,1.52-.09,2.1,0,5.14,1.55,9.43,4.64,12.87,3.09,3.45,7.29,6.01,12.61,7.7,5.31,1.69,11.29,2.54,17.94,2.54,2.22,0,4.87-.14,7.97-.44,3.09-.29,6.24-.88,9.45-1.75,3.21-.87,6.16-2.1,8.84-3.68,2.68-1.58,4.87-3.62,6.56-6.13,1.69-2.51,2.54-5.63,2.54-9.37,0-4.32-1.17-7.88-3.5-10.68-2.34-2.8-5.4-5.1-9.19-6.91-3.8-1.81-8.14-3.41-13.04-4.81-4.9-1.4-9.92-2.74-15.06-4.03-5.14-1.28-10.13-2.74-14.97-4.37-4.84-1.63-9.19-3.68-13.04-6.13-3.85-2.45-6.91-5.52-9.19-9.19-2.28-3.68-3.41-8.2-3.41-13.57,0-4.67.93-8.93,2.8-12.78,1.87-3.85,4.73-7.15,8.58-9.89,3.85-2.74,8.75-4.87,14.71-6.39,5.95-1.52,13.01-2.28,21.18-2.28,6.19,0,11.96.64,17.33,1.93,5.37,1.28,10.09,3.3,14.18,6.04,4.08,2.74,7.27,6.19,9.54,10.33,2.28,4.14,3.41,9.14,3.41,14.97v2.1h-13.66v-2.98c0-4.31-1.34-7.97-4.03-10.94-2.69-2.97-6.27-5.31-10.77-7-4.5-1.69-9.6-2.54-15.32-2.54-7.82,0-14.24.79-19.26,2.36-5.02,1.57-8.75,3.74-11.2,6.48-2.45,2.74-3.68,5.81-3.68,9.19,0,3.97,1.16,7.26,3.5,9.89,2.34,2.62,5.43,4.79,9.28,6.48,3.85,1.69,8.2,3.21,13.04,4.55,4.84,1.34,9.83,2.66,14.97,3.94,5.13,1.29,10.12,2.78,14.97,4.47,4.84,1.69,9.22,3.79,13.13,6.3,3.91,2.51,7,5.63,9.28,9.37,2.28,3.74,3.41,8.35,3.41,13.83,0,8.29-2.07,15.06-6.22,20.31-4.14,5.25-9.83,9.1-17.07,11.55-7.24,2.45-15.64,3.68-25.21,3.68Z"/>
      <path class="cls-1" d="M1131.17,693.51c-12.37,0-23.02-2.3-31.95-6.92-8.93-4.61-15.79-11.52-20.57-20.75-4.79-9.22-7.18-20.72-7.18-34.49s2.39-25.41,7.18-34.58c4.78-9.16,11.64-16.05,20.57-20.66,8.93-4.61,19.58-6.91,31.95-6.91s23.2,2.31,32.12,6.91c8.93,4.61,15.76,11.5,20.48,20.66,4.73,9.16,7.09,20.69,7.09,34.58s-2.36,25.27-7.09,34.49c-4.73,9.22-11.55,16.14-20.48,20.75-8.93,4.61-19.64,6.92-32.12,6.92ZM1131.17,681.6c6.89,0,13.13-.9,18.73-2.72,5.6-1.81,10.39-4.7,14.35-8.66,3.97-3.97,7.03-8.99,9.19-15.06,2.16-6.06,3.24-13.36,3.24-21.88v-3.68c0-8.64-1.08-15.99-3.24-22.06-2.16-6.07-5.22-11.09-9.19-15.06-3.97-3.97-8.75-6.86-14.35-8.67-5.6-1.81-11.85-2.71-18.73-2.71s-13.1.9-18.65,2.71-10.3,4.7-14.27,8.67c-3.97,3.97-7.03,8.99-9.19,15.06-2.16,6.07-3.24,13.42-3.24,22.06v3.68c0,8.52,1.08,15.82,3.24,21.88,2.16,6.07,5.22,11.09,9.19,15.06,3.97,3.97,8.72,6.86,14.27,8.66,5.54,1.81,11.76,2.72,18.65,2.72Z"/>
      <path class="cls-1" d="M1268.6,693.51c-12.25,0-22.61-2.28-31.07-6.83-8.47-4.55-14.88-11.44-19.26-20.66-4.38-9.22-6.56-20.77-6.56-34.66,0-20.77,5.02-36.33,15.06-46.66,10.04-10.33,24.1-15.49,42.19-15.49,10.39,0,19.52,1.66,27.4,4.99,7.88,3.33,14.06,8.29,18.56,14.88,4.49,6.6,6.74,14.97,6.74,25.12h-14c0-7.59-1.58-13.8-4.73-18.65-3.15-4.84-7.62-8.46-13.39-10.85-5.78-2.39-12.69-3.59-20.75-3.59-8.64,0-16.17,1.69-22.59,5.08-6.42,3.39-11.38,8.67-14.88,15.84-3.5,7.18-5.25,16.55-5.25,28.1v3.68c0,11.32,1.75,20.48,5.25,27.49,3.5,7,8.46,12.14,14.88,15.4,6.42,3.27,14.01,4.9,22.76,4.9,8.05,0,15-1.2,20.83-3.59,5.83-2.39,10.33-6.01,13.48-10.85,3.15-4.84,4.73-11.06,4.73-18.65h13.66c0,10.27-2.31,18.73-6.91,25.39-4.61,6.65-10.89,11.58-18.82,14.79-7.94,3.21-17.04,4.81-27.31,4.81Z"/>
      <path class="cls-1" d="M1348.08,691.41v-120.1h13.83v120.1h-13.83Z"/>
      <path class="cls-1" d="M1380.82,691.41l47.79-120.1h18.56l47.97,120.1h-14.88l-12.6-31.69h-60.22l-12.43,31.69h-14.18ZM1412.16,647.81h50.77l-15.76-40.09c-.35-.93-.87-2.33-1.58-4.2-.7-1.86-1.49-4-2.36-6.39-.87-2.39-1.75-4.81-2.62-7.27-.87-2.45-1.72-4.67-2.54-6.65h-1.22c-.7,2.22-1.6,4.85-2.71,7.88-1.11,3.03-2.22,6.04-3.33,9.02-1.11,2.97-2.07,5.51-2.89,7.61l-15.76,40.09Z"/>
      <path class="cls-1" d="M1514.22,691.41v-120.1h43.24c12.84,0,23.72,2.07,32.65,6.22,8.93,4.14,15.76,10.62,20.48,19.43,4.73,8.81,7.09,20.28,7.09,34.4s-2.36,25.27-7.09,34.14c-4.73,8.87-11.55,15.4-20.48,19.61-8.93,4.2-19.81,6.3-32.65,6.3h-43.24ZM1528.06,679.5h28.89c7.12,0,13.54-.84,19.26-2.54,5.72-1.69,10.62-4.37,14.71-8.05,4.08-3.68,7.18-8.43,9.28-14.27,2.1-5.84,3.15-12.9,3.15-21.19v-3.68c0-8.52-1.05-15.73-3.15-21.62-2.1-5.89-5.16-10.68-9.19-14.36-4.03-3.68-8.9-6.36-14.62-8.05-5.72-1.69-12.2-2.54-19.43-2.54h-28.89v96.29Z"/>
      <path class="cls-1" d="M1698.22,693.51c-12.37,0-23.02-2.3-31.95-6.92-8.93-4.61-15.79-11.52-20.57-20.75-4.79-9.22-7.18-20.72-7.18-34.49s2.39-25.41,7.18-34.58c4.78-9.16,11.64-16.05,20.57-20.66,8.93-4.61,19.58-6.91,31.95-6.91s23.2,2.31,32.12,6.91c8.93,4.61,15.76,11.5,20.48,20.66,4.73,9.16,7.09,20.69,7.09,34.58s-2.36,25.27-7.09,34.49c-4.73,9.22-11.55,16.14-20.48,20.75-8.93,4.61-19.64,6.92-32.12,6.92ZM1698.22,681.6c6.89,0,13.13-.9,18.73-2.72,5.6-1.81,10.39-4.7,14.35-8.66,3.97-3.97,7.03-8.99,9.19-15.06,2.16-6.06,3.24-13.36,3.24-21.88v-3.68c0-8.64-1.08-15.99-3.24-22.06-2.16-6.07-5.22-11.09-9.19-15.06-3.97-3.97-8.75-6.86-14.35-8.67-5.6-1.81-11.85-2.71-18.73-2.71s-13.1.9-18.65,2.71-10.3,4.7-14.27,8.67c-3.97,3.97-7.03,8.99-9.19,15.06-2.16,6.07-3.24,13.42-3.24,22.06v3.68c0,8.52,1.08,15.82,3.24,21.88,2.16,6.07,5.22,11.09,9.19,15.06,3.97,3.97,8.72,6.86,14.27,8.66,5.54,1.81,11.76,2.72,18.65,2.72Z"/>
      <path class="cls-1" d="M1829,693.51c-6.42,0-12.67-.59-18.73-1.75-6.07-1.16-11.44-3.15-16.11-5.95-4.67-2.8-8.35-6.48-11.03-11.03-2.69-4.55-4.03-10.21-4.03-16.98v-1.66c0-.52.06-1.08.18-1.66h13.83c0,.47-.03,1.11-.09,1.93-.06.82-.09,1.52-.09,2.1,0,5.14,1.55,9.43,4.64,12.87,3.09,3.45,7.29,6.01,12.61,7.7,5.31,1.69,11.29,2.54,17.94,2.54,2.22,0,4.87-.14,7.97-.44,3.09-.29,6.24-.88,9.45-1.75,3.21-.87,6.16-2.1,8.84-3.68,2.68-1.58,4.87-3.62,6.56-6.13,1.69-2.51,2.54-5.63,2.54-9.37,0-4.32-1.17-7.88-3.5-10.68-2.34-2.8-5.4-5.1-9.19-6.91-3.8-1.81-8.14-3.41-13.04-4.81-4.9-1.4-9.92-2.74-15.06-4.03-5.14-1.28-10.13-2.74-14.97-4.37-4.84-1.63-9.19-3.68-13.04-6.13-3.85-2.45-6.91-5.52-9.19-9.19-2.28-3.68-3.41-8.2-3.41-13.57,0-4.67.93-8.93,2.8-12.78,1.87-3.85,4.73-7.15,8.58-9.89,3.85-2.74,8.75-4.87,14.71-6.39,5.95-1.52,13.01-2.28,21.18-2.28,6.19,0,11.96.64,17.33,1.93,5.37,1.28,10.09,3.3,14.18,6.04,4.08,2.74,7.27,6.19,9.54,10.33,2.28,4.14,3.41,9.14,3.41,14.97v2.1h-13.66v-2.98c0-4.31-1.34-7.97-4.03-10.94-2.69-2.97-6.27-5.31-10.77-7-4.5-1.69-9.6-2.54-15.32-2.54-7.82,0-14.24.79-19.26,2.36-5.02,1.57-8.75,3.74-11.2,6.48-2.45,2.74-3.68,5.81-3.68,9.19,0,3.97,1.16,7.26,3.5,9.89,2.34,2.62,5.43,4.79,9.28,6.48,3.85,1.69,8.2,3.21,13.04,4.55,4.84,1.34,9.83,2.66,14.97,3.94,5.13,1.29,10.12,2.78,14.97,4.47,4.84,1.69,9.22,3.79,13.13,6.3,3.91,2.51,7,5.63,9.28,9.37,2.28,3.74,3.41,8.35,3.41,13.83,0,8.29-2.07,15.06-6.22,20.31-4.14,5.25-9.83,9.1-17.07,11.55-7.24,2.45-15.64,3.68-25.21,3.68Z"/>
    </g>
  </g>
  <path class="cls-1" d="M748.4,590.5c-2.21,0-4-1.79-4-4V227.02c0-2.21,1.79-4,4-4s4,1.79,4,4v359.48c0,2.21-1.79,4-4,4Z"/>
  <g>
    <polygon class="cls-1" points="585.77 75.15 367.41 192.24 318.54 218.42 318.54 372.19 374.45 342.21 374.45 248.79 465.69 199.91 583.25 136.9 583.25 251.24 318.54 393.16 318.54 678.24 374.45 648.26 374.45 423.53 639.12 281.65 639.12 46.56 585.77 75.15"/>
    <polygon class="cls-1" points="568.72 459.7 568.72 520.05 615.83 494.81 615.83 595.88 585.78 612.01 493.29 661.55 468.21 675.02 468.21 403.68 411.86 433.87 411.86 765.58 672.19 626.01 672.19 404.23 568.72 459.7"/>
    <polygon class="cls-1" points="639.12 372.42 639.12 312.03 490.78 391.55 490.78 639.11 578.28 592.2 578.28 531.84 547.13 548.53 547.13 421.72 639.12 372.42"/>
  </g>
</svg>