<?xml version="1.0" encoding="UTF-8"?>
<svg id="Logotipo" xmlns="http://www.w3.org/2000/svg" version="1.1" viewBox="0 0 568 1080">
  <!-- Generator: Adobe Illustrator 29.1.0, SVG Export Plug-In . SVG Version: 2.1.0 Build 142)  -->
  <defs>
    <style>
      .st0 {
        fill: #4c636b;
      }

      .st1 {
        fill: #263948;
      }
    </style>
  </defs>
  <polygon class="st0" points="419.7 42.9 91.7 218.8 18.4 258.1 18.4 489.1 102.4 444.1 102.4 303.8 239.4 230.3 416 135.7 416 307.5 18.4 520.6 18.4 948.9 102.4 903.9 102.4 566.3 499.9 353.1 499.9 0 419.7 42.9"/>
  <polygon class="st1" points="394.1 620.5 394.1 711.2 464.9 673.3 464.9 825.1 419.7 849.4 280.9 923.7 243.1 944 243.1 536.4 158.6 581.8 158.6 1080 549.6 870.4 549.6 537.2 394.1 620.5"/>
  <polygon class="st1" points="499.9 489.4 499.9 398.8 277.1 518.2 277.1 890 408.5 819.6 408.5 728.9 361.8 754 361.8 563.5 499.9 489.4"/>
</svg>